<?xml version="1.0" encoding="utf-8"?>
<!-- Generator: Adobe Illustrator 24.0.1, SVG Export Plug-In . SVG Version: 6.00 Build 0)  -->
<svg version="1.1" id="Layer_1" xmlns="http://www.w3.org/2000/svg" xmlns:xlink="http://www.w3.org/1999/xlink" x="0px" y="0px"
	 viewBox="0 0 111.2 30.6" style="enable-background:new 0 0 111.2 30.6;" xml:space="preserve">
<style type="text/css">
	.st0{enable-background:new    ;}
	.st1{fill:#2E2E2E;}
</style>
<image style="overflow:visible;" width="140" height="139" xlink:href="logo - Copie.png"  transform="matrix(0.1872 0 0 0.1743 -0.7021 -0.9043)">
</image>
<g id="Group_2" transform="translate(-372.804 -44.291)">
	<g class="st0">
		<path class="st1" d="M391.3,68.9V51.7h12.7v2.9h-9.3v3.8h8.6v2.9h-8.6V66h9.6v2.9H391.3z"/>
		<path class="st1" d="M409.8,60.2l-3-0.5c0.3-1.2,0.9-2.1,1.7-2.7s2-0.9,3.7-0.9c1.5,0,2.6,0.2,3.3,0.5s1.2,0.8,1.5,1.3
			s0.4,1.5,0.4,2.9l0,3.8c0,1.1,0.1,1.9,0.2,2.4s0.3,1.1,0.6,1.7h-3.3c-0.1-0.2-0.2-0.5-0.3-1c-0.1-0.2-0.1-0.3-0.1-0.4
			c-0.6,0.5-1.2,1-1.8,1.2s-1.3,0.4-2.1,0.4c-1.3,0-2.3-0.3-3-1s-1.1-1.6-1.1-2.6c0-0.7,0.2-1.3,0.5-1.9s0.8-1,1.4-1.3
			s1.5-0.5,2.6-0.8c1.5-0.3,2.6-0.6,3.2-0.8v-0.3c0-0.6-0.2-1.1-0.5-1.4s-0.9-0.4-1.8-0.4c-0.6,0-1,0.1-1.4,0.3S410,59.6,409.8,60.2
			z M414.2,62.9c-0.4,0.1-1.1,0.3-2,0.5s-1.5,0.4-1.8,0.6c-0.4,0.3-0.6,0.7-0.6,1.2c0,0.5,0.2,0.9,0.5,1.2s0.8,0.5,1.3,0.5
			c0.6,0,1.2-0.2,1.7-0.6c0.4-0.3,0.7-0.7,0.8-1.1c0.1-0.3,0.1-0.8,0.1-1.6V62.9z"/>
		<path class="st1" d="M419.5,65.3l3.3-0.5c0.1,0.6,0.4,1.1,0.9,1.5s1,0.5,1.8,0.5c0.9,0,1.5-0.2,1.9-0.5c0.3-0.2,0.4-0.5,0.4-0.9
			c0-0.3-0.1-0.5-0.2-0.6c-0.2-0.2-0.5-0.3-1.1-0.4c-2.7-0.6-4.3-1.1-5.1-1.6c-1-0.7-1.5-1.6-1.5-2.8c0-1.1,0.4-2,1.3-2.7
			s2.2-1.1,4-1.1c1.7,0,3,0.3,3.8,0.8s1.4,1.4,1.7,2.5l-3.1,0.6c-0.1-0.5-0.4-0.9-0.8-1.1s-0.9-0.4-1.6-0.4c-0.9,0-1.5,0.1-1.9,0.4
			c-0.3,0.2-0.4,0.4-0.4,0.7c0,0.2,0.1,0.4,0.3,0.6c0.3,0.2,1.3,0.5,3.1,0.9s3,0.9,3.7,1.5c0.7,0.6,1,1.4,1,2.4
			c0,1.1-0.5,2.1-1.4,2.9s-2.4,1.2-4.2,1.2c-1.7,0-3-0.3-4-1S419.8,66.5,419.5,65.3z"/>
		<path class="st1" d="M432.5,56.4h3.5l3,8.8l2.9-8.8h3.4l-4.4,12l-0.8,2.2c-0.3,0.7-0.6,1.3-0.8,1.7s-0.6,0.7-0.9,0.9
			s-0.8,0.4-1.3,0.6s-1.1,0.2-1.7,0.2c-0.6,0-1.3-0.1-1.9-0.2l-0.3-2.6c0.5,0.1,1,0.2,1.4,0.2c0.8,0,1.3-0.2,1.7-0.7s0.6-1,0.8-1.7
			L432.5,56.4z"/>
		<path class="st1" d="M447.4,68.9V51.7h3.5v6.8h6.8v-6.8h3.5v17.2h-3.5v-7.5h-6.8v7.5H447.4z"/>
		<path class="st1" d="M478.6,66.7c0.9,0.6,1.8,1.1,2.8,1.5l-1.3,2.4c-0.5-0.2-1-0.4-1.5-0.6c-0.1-0.1-0.9-0.6-2.3-1.5
			c-1.1,0.5-2.4,0.7-3.7,0.7c-2.6,0-4.7-0.8-6.2-2.3s-2.2-3.7-2.2-6.6c0-2.8,0.8-5,2.3-6.5s3.5-2.3,6.1-2.3c2.5,0,4.6,0.8,6.1,2.3
			s2.2,3.7,2.2,6.5c0,1.5-0.2,2.8-0.6,3.9C479.7,65,479.2,65.9,478.6,66.7z M475.8,64.7c0.4-0.5,0.8-1.2,1-1.9s0.3-1.6,0.3-2.6
			c0-2-0.4-3.5-1.3-4.4s-2-1.5-3.4-1.5s-2.6,0.5-3.4,1.5s-1.3,2.5-1.3,4.4c0,2,0.4,3.5,1.3,4.5s2,1.5,3.3,1.5c0.5,0,1-0.1,1.4-0.2
			c-0.7-0.5-1.4-0.8-2.1-1.1l1-2C473.6,63.3,474.7,63.9,475.8,64.7z"/>
	</g>
</g>
</svg>
